<?xml version="1.0" encoding="utf-8"?>
<!-- Generator: Adobe Illustrator 16.0.0, SVG Export Plug-In . SVG Version: 6.00 Build 0)  -->
<!DOCTYPE svg PUBLIC "-//W3C//DTD SVG 1.1//EN" "http://www.w3.org/Graphics/SVG/1.1/DTD/svg11.dtd">
<svg version="1.1" id="Layer_1" xmlns="http://www.w3.org/2000/svg" xmlns:xlink="http://www.w3.org/1999/xlink" x="0px" y="0px"
	 width="150px" height="420px" viewBox="0 0 150 420" enable-background="new 0 0 150 420" xml:space="preserve">
<pattern  x="-401" y="-288.5" width="9.27" height="55.117" patternUnits="userSpaceOnUse" id="New_Pattern_Swatch_1" viewBox="0 -55.117 9.27 55.117" overflow="visible">
	<g>
		<polygon fill="none" points="0,0 9.27,0 9.27,-55.117 0,-55.117 		"/>
		<polygon fill="#90A7CE" points="4.635,0 0,0 0,-55.117 4.635,-55.117 		"/>
		<polygon fill="#FFFFFF" points="9.27,0 4.635,0 4.635,-55.117 9.27,-55.117 		"/>
	</g>
</pattern>
<polygon fill="#F5CAC9" points="64.195,329.123 38.389,329.123 34.24,280.888 68.655,280.888 "/>
<polygon fill="#90A7CE" points="64.195,387.797 41.611,387.797 38.389,329.123 64.195,327.883 "/>
<path fill="#010101" d="M64.195,385.98H41.611c-2.343,0-34.384,8.953-34.384,10.888v7.296c0,1.937,1.899,3.507,4.243,3.507h6.49
	v3.747h5.957v-3.747h7.344v3.747h5.957v-3.747h7.078v3.747h5.957v-3.747h9.054v3.747h5.957v-3.817
	c1.936-0.325,3.393-1.74,3.393-3.437v-7.296C68.655,394.934,68.438,389.487,64.195,385.98z"/>
<polygon fill="#F5CAC9" points="86.991,329.123 112.798,329.123 116.947,280.888 82.533,280.888 "/>
<polygon fill="#90A7CE" points="86.991,387.797 109.575,387.797 112.798,329.123 86.991,327.883 "/>
<path fill="#010101" d="M86.991,385.98h22.584c2.345,0,34.385,8.953,34.385,10.888v7.296c0,1.937-1.899,3.507-4.242,3.507h-6.49
	v3.747h-5.958v-3.747h-7.344v3.747h-5.955v-3.747h-7.078v3.747h-5.956v-3.747h-9.055v3.747h-5.956v-3.817
	c-1.937-0.325-3.393-1.74-3.393-3.437v-7.296C82.533,394.934,82.749,389.487,86.991,385.98z"/>
<g>
	<polygon fill="#F5CAC9" points="39.653,222.198 36.258,221.27 32.86,220.342 29.463,219.414 26.068,218.485 24.133,196.557 
		22.198,174.628 18.13,137.879 18.329,130.769 24.639,130.769 30.948,130.769 37.258,130.769 43.568,130.769 42.588,153.626 
		41.61,176.484 40.633,199.341 	"/>
	<path fill="#F5CAC9" d="M43.568,245.531c0,2.343-1.9,4.242-4.243,4.242H26.068c-2.343,0-4.242-1.899-4.242-4.242v-22.803
		c0-2.343,1.899-4.243,4.242-4.243h13.258c2.343,0,4.243,1.9,4.243,4.243V245.531z"/>
	<polygon fill="#F5CAC9" points="113.258,224.319 116.653,223.391 120.051,222.463 123.448,221.535 126.843,220.607 
		128.777,198.678 130.713,176.749 134.781,140 134.582,132.89 128.272,132.89 121.963,132.89 115.652,132.89 109.343,132.89 
		110.322,155.748 111.301,178.605 112.278,201.462 	"/>
	<path fill="#F5CAC9" d="M111.464,247.652c0,2.343,1.899,4.243,4.242,4.243h13.258c2.343,0,4.243-1.9,4.243-4.243V224.85
		c0-2.343-1.9-4.242-4.243-4.242h-13.258c-2.343,0-4.242,1.899-4.242,4.242V247.652z"/>
</g>
<pattern  id="SVGID_1_" xlink:href="#New_Pattern_Swatch_1" patternTransform="matrix(2.1212 0 0 2.1212 8159.2217 7826.3506)">
</pattern>
<path fill="url(#SVGID_1_)" stroke="#90A7CE" stroke-width="2.1212" stroke-miterlimit="10" d="M135.929,117.885
	c0-10.457-8.879-18.935-19.824-18.935H36.807c-10.948,0-19.824,8.478-19.824,18.935v18.934h20.429l-3.366,79.049h84.82
	l-3.368-79.049h20.432V117.885z"/>
<g>
	<path fill="#F5CAC9" d="M76.456,92.586c17.577,0,31.819-17.092,31.819-38.182c0-21.09-14.242-38.182-31.819-38.182
		c-17.575,0-31.818,17.092-31.818,38.182C44.637,75.494,58.881,92.586,76.456,92.586z"/>
	<polygon fill="#010101" points="102.646,20.327 87.3,11.418 76.456,11.418 65.61,11.418 50.267,20.327 44.89,28.824 44.89,37.528 
		45.021,49.601 58.591,33.054 76.456,43.13 94.32,33.054 107.889,49.601 108.021,37.528 108.021,28.824 	"/>
</g>
<g>
	<g>
		<polygon fill="#010101" points="72.381,280.888 28.715,280.888 34.482,215.867 81.199,215.867 		"/>
	</g>
	<g>
		<polygon fill="#010101" points="80.53,280.888 124.195,280.888 118.429,215.867 71.712,215.867 		"/>
	</g>
</g>
</svg>
