<?xml version="1.0" encoding="utf-8"?>
<!-- Generator: Adobe Illustrator 16.0.0, SVG Export Plug-In . SVG Version: 6.00 Build 0)  -->
<!DOCTYPE svg PUBLIC "-//W3C//DTD SVG 1.1//EN" "http://www.w3.org/Graphics/SVG/1.1/DTD/svg11.dtd">
<svg version="1.1" id="Layer_1" xmlns="http://www.w3.org/2000/svg" xmlns:xlink="http://www.w3.org/1999/xlink" x="0px" y="0px"
	 width="136.732px" height="400px" viewBox="0 0 136.732 400" enable-background="new 0 0 136.732 400" xml:space="preserve">
<pattern  x="-431.134" y="700.5" width="30" height="99.5" patternUnits="userSpaceOnUse" id="New_Pattern_Swatch_2" viewBox="0 -99.5 30 99.5" overflow="visible">
	<g>
		<polygon fill="none" points="0,0 30,0 30,-99.5 0,-99.5 		"/>
		<polygon fill="#DD4132" points="15,0 0,0 0,-99.5 15,-99.5 		"/>
		<polygon fill="#FFFFFF" points="30,0 15,0 15,-99.5 30,-99.5 		"/>
	</g>
</pattern>
<polygon fill="#F5CAC9" points="56.968,317.705 31.162,317.705 27.013,269.469 61.428,269.469 "/>
<polygon fill="#FFFFFF" stroke="#939598" stroke-miterlimit="10" points="56.968,376.378 34.384,376.378 31.162,317.705 
	56.968,316.464 "/>
<path fill="#010101" d="M56.968,374.562H34.384C32.041,374.562,0,383.516,0,385.45v7.296c0,1.938,1.899,3.507,4.243,3.507h6.49V400
	h5.957v-3.747h7.344V400h5.957v-3.747h7.078V400h5.957v-3.747h9.054V400h5.957v-3.817c1.937-0.325,3.394-1.739,3.394-3.437v-7.296
	C61.428,383.516,61.21,378.068,56.968,374.562z"/>
<polygon fill="#F5CAC9" points="79.764,317.705 105.57,317.705 109.72,269.469 75.306,269.469 "/>
<polygon fill="#FFFFFF" stroke="#939598" stroke-miterlimit="10" points="79.764,376.378 102.348,376.378 105.57,317.705 
	79.764,316.464 "/>
<path fill="#010101" d="M79.764,374.562h22.584c2.345,0,34.385,8.953,34.385,10.888v7.296c0,1.938-1.899,3.507-4.242,3.507H126V400
	h-5.958v-3.747h-7.344V400h-5.955v-3.747h-7.078V400h-5.956v-3.747h-9.055V400h-5.956v-3.817c-1.938-0.325-3.393-1.739-3.393-3.437
	v-7.296C75.306,383.516,75.521,378.068,79.764,374.562z"/>
<g>
	<polygon fill="#F5CAC9" points="32.425,210.78 29.03,209.852 25.633,208.923 22.236,207.996 18.84,207.066 16.906,185.138 
		14.971,163.209 10.902,126.46 11.101,119.35 17.411,119.35 23.721,119.35 30.031,119.35 36.341,119.35 35.361,142.208 
		34.383,165.065 33.405,187.922 	"/>
	<path fill="#F5CAC9" d="M36.341,234.113c0,2.343-1.899,4.242-4.242,4.242H18.84c-2.343,0-4.241-1.899-4.241-4.242v-22.803
		c0-2.344,1.898-4.244,4.241-4.244h13.259c2.343,0,4.242,1.9,4.242,4.244V234.113z"/>
	<polygon fill="#F5CAC9" points="106.03,212.9 109.426,211.973 112.823,211.044 116.221,210.117 119.615,209.189 121.55,187.259 
		123.485,165.331 127.554,128.582 127.354,121.471 121.045,121.471 114.735,121.471 108.425,121.471 102.115,121.471 
		103.095,144.33 104.073,167.187 105.051,190.043 	"/>
	<path fill="#F5CAC9" d="M104.236,236.234c0,2.343,1.898,4.242,4.242,4.242h13.258c2.343,0,4.243-1.899,4.243-4.242v-22.803
		c0-2.344-1.9-4.242-4.243-4.242h-13.258c-2.344,0-4.242,1.898-4.242,4.242V236.234L104.236,236.234z"/>
</g>
<path fill="url(#New_Pattern_Swatch_2)" stroke="#DD4132" stroke-miterlimit="10" d="M128.701,106.466
	c0-10.457-8.879-18.935-19.824-18.935H29.579c-10.948,0-19.824,8.478-19.824,18.935V125.4h20.43l-3.366,79.049h84.82L108.27,125.4
	h20.432L128.701,106.466L128.701,106.466z"/>
<g>
	<path fill="#F5CAC9" d="M69.228,81.168c17.577,0,31.818-17.092,31.818-38.182c0-21.09-14.241-38.182-31.818-38.182
		c-17.575,0-31.818,17.092-31.818,38.182C37.41,64.076,51.653,81.168,69.228,81.168z"/>
	<polygon fill="#010101" points="95.418,8.908 80.072,0 69.228,0 58.383,0 43.039,8.908 37.662,17.406 37.662,26.109 37.794,38.182 
		51.363,21.636 69.228,31.711 87.093,21.636 100.661,38.182 100.794,26.109 100.794,17.406 	"/>
</g>
<polygon fill="#005083" points="116.968,269.469 111.201,204.449 73.972,204.449 64.484,204.449 27.255,204.449 21.488,269.469 
	65.153,269.469 69.228,239.425 73.303,269.469 "/>
<rect x="282.866" y="100.5" fill="#DD4132" width="15" height="99.5"/>
<rect x="297.866" y="100.5" fill="#FFFFFF" width="15" height="99.5"/>
</svg>
