<?xml version="1.0" encoding="utf-8"?>
<!-- Generator: Adobe Illustrator 16.0.0, SVG Export Plug-In . SVG Version: 6.00 Build 0)  -->
<!DOCTYPE svg PUBLIC "-//W3C//DTD SVG 1.1//EN" "http://www.w3.org/Graphics/SVG/1.1/DTD/svg11.dtd">
<svg version="1.1" id="Layer_1" xmlns="http://www.w3.org/2000/svg" xmlns:xlink="http://www.w3.org/1999/xlink" x="0px" y="0px"
	 width="1000px" height="300px" viewBox="0 0 1000 300" enable-background="new 0 0 1000 300" xml:space="preserve">
<rect fill="#2A2A2A" width="1000" height="300"/>
<g>
	<g>
		<line fill="none" stroke="#F8DF3C" stroke-width="2" stroke-miterlimit="10" x1="580.879" y1="140.12" x2="610.978" y2="140.12"/>
		<g>
			<polygon fill="#F8DF3C" points="625.099,140.12 605.201,148.25 609.922,140.12 605.201,131.991 			"/>
		</g>
	</g>
</g>
<g>
	<g>
		<g>
			<text transform="matrix(1 0 0 1 50.5249 251.8691)"><tspan x="0" y="0" fill="#F9DF3C" font-family="'MyriadPro-Regular'" font-size="14.1207">Google Spreadsheet</tspan><tspan x="19.458" y="16.945" fill="#F9DF3C" font-family="'MyriadPro-Regular'" font-size="14.1207">( Squad data )</tspan></text>
			<g>
				<rect x="89.578" y="160.748" fill="#F9DF3C" width="62.281" height="10.378"/>
				<rect x="89.578" y="134.8" fill="#F9DF3C" width="62.281" height="10.38"/>
				<rect x="89.578" y="108.847" fill="#F9DF3C" width="62.281" height="10.384"/>
				<rect x="68.819" y="108.847" fill="#F9DF3C" width="10.38" height="10.384"/>
				<rect x="68.819" y="134.8" fill="#F9DF3C" width="10.38" height="10.38"/>
				<rect x="68.819" y="160.748" fill="#F9DF3C" width="10.38" height="10.378"/>
			</g>
		</g>
		<g>
			<path fill="#F9DF3C" d="M757.731,138.968c0-2.367-0.237-4.672-0.596-6.938l14.07-12.311l-11.953-19.619l-16.778,5.479
				c-4.012-3.49-8.652-6.245-13.736-8.121l-3.724-16.229h-23.098l-3.722,16.229c-5.078,1.876-9.726,4.637-13.734,8.127
				l-16.784-5.484l-11.951,19.619l14.07,12.315c-0.358,2.261-0.595,4.565-0.595,6.933c0,2.369,0.236,4.671,0.595,6.937
				l-14.07,12.313l11.958,19.622l16.777-5.48c4.009,3.491,8.656,6.249,13.74,8.12l3.716,16.229h23.098l3.717-16.229
				c5.086-1.871,9.724-4.629,13.739-8.12l16.771,5.48l11.965-19.622l-14.07-12.309C757.494,143.639,757.731,141.337,757.731,138.968
				 M713.466,154.716c-8.687,0-15.746-7.048-15.746-15.748c0-8.698,7.06-15.746,15.746-15.746c8.688,0,15.747,7.048,15.747,15.746
				C729.213,147.668,722.155,154.716,713.466,154.716"/>
			<text transform="matrix(1 0 0 1 683.5708 253.7598)" fill="#F9DF3C" font-family="'MyriadPro-Regular'" font-size="14.1207">Node App</text>
		</g>
		<g>
			<g>
				<path id="Wikipedia" fill="#F9DF3C" d="M371.015,97.076c0,0-18.531,0-24.689,0l-1.767,0.304v2.373
					c0,0.278,0.842,0.512,1.076,0.687c0.223,0.188,0.826,0.29,1.074,0.29l2.24,0.111c2.537,0.12,3.308,0.671,4.298,1.6
					c0.969,0.963,1.129,2.595,0.375,4.889l-21.826,56.969l-0.833-0.249l-13.863-31.183c0.2-0.468,0.322-0.73,0.322-0.73
					l11.35-23.327c1.319-2.46,2.598-4.659,3.246-5.684c1.187-1.869,1.762-2.222,4.994-2.385c0.661,0,0.913-0.323,0.913-0.979v-2.359
					l-0.167-0.254c0,0-13.565-0.046-19.744,0l0.006,0.243v2.361c0,0.287-0.163,0.517,0.059,0.69
					c0.233,0.189,0.332,0.286,0.583,0.286l0.924,0.118c2.524,0.119,3.655,0.844,3.998,1.299c0.603,0.815,0.884,1.687-0.578,5.189
					l-8.738,19.137l-7.897-17.751c-2.589-5.671-3.23-7.427,0.673-7.755l1.049-0.243c0.75,0,0.635-0.297,0.635-0.861V97.38
					l-0.079-0.202c0,0-14.464,0-21.063,0.003l-0.09,0.243v2.488c0,0.56,0.55,0.702,1.573,0.856c3.655,0.525,3.591,0.946,7.204,8.819
					c0.54,1.18,2.135,4.736,2.135,4.736l8.233,17.771c0,0,0.933,2.282,2.395,5.826l-11.966,26.227l-0.682-0.195
					c0,0-18.568-43.019-23.937-57.415c-0.565-1.481-0.81-2.592-0.81-3.274c0-1.463,1.199-2.256,3.598-2.361l3.652-0.132
					c0.747,0,1.969-0.312,1.969-0.965v-2.359l-1.1-0.244c0,0-22.747-0.027-27.341,0l-0.755,0.244v2.484
					c0,0.446,0.595,0.724,1.628,0.842c2.825,0.171,4.723,0.662,5.612,1.49c0.887,0.833,1.849,2.939,3.096,6.221
					c6.75,17.814,21.102,49.604,28.089,67.715c2.006,4.94,4.542,5.71,7.606-0.155c3.158-6.435,9.527-20.713,14.173-31.254
					c4.346,10.515,10.264,24.742,13.117,31.186c2.271,5.158,4.862,5.67,7.493,0.152c6.877-16.79,26.966-67.328,26.966-67.328
					c0.867-2.479,2.08-4.392,3.643-5.779c1.55-1.37,3.859-2.146,7.098-2.297c0.657,0,0.914-0.33,0.914-0.97V97.38L371.015,97.076z"
					/>
			</g>
			<text transform="matrix(1 0 0 1 282.2012 251.8691)"><tspan x="0" y="0" fill="#F9DF3C" font-family="'MyriadPro-Regular'" font-size="14.1207">Wikipedia</tspan><tspan x="-32.209" y="16.945" fill="#F9DF3C" font-family="'MyriadPro-Regular'" font-size="14.1207">( Player information )</tspan></text>
		</g>
		<g>
			<text transform="matrix(1 0 0 1 457.3887 251.8691)"><tspan x="0" y="0" fill="#F9DF3C" font-family="'MyriadPro-Regular'" font-size="14.1207">Weather Company</tspan><tspan x="1.306" y="16.945" fill="#F9DF3C" font-family="'MyriadPro-Regular'" font-size="14.1207">( Conditions data )</tspan></text>
			<path id="path2995" sodipodi:nodetypes="ccsssssssssssssccc" inkscape:connector-curvature="0" fill="#F9DF3C" d="
				M563.669,73.362l-5.62,11.495c0,0-3.109,9.271-4.086,14.05c-0.57,2.772-0.846,5.604-1.022,8.43
				c-0.12,1.881-0.646,5.247-0.768,7.919c-0.365,8.071,0.832,18.479,0.255,28.099c-0.265,4.44-0.214,8.964-1.278,13.282
				c-1.294,5.268-3.157,10.534-6.129,15.072c-2.737,4.181-6.242,8.07-10.474,10.729c-8.138,5.115-17.724,9.383-27.335,9.195
				c-11.019-0.213-22.174-5.026-30.908-11.75c-4.981-3.834-8.479-9.562-10.984-15.326c-2.767-6.372-4.477-13.5-4.087-20.437
				c0.502-8.927,2.552-18.525,8.175-25.544c7.357-9.187,19.03-16.493,30.142-18.393c18.392-3.144,34.742-7.918,34.742-7.918
				l17.626-10.474L563.669,73.362z"/>
		</g>
		<g>
			<g>
				<polygon fill="#F4CACA" stroke="#DBB5B4" stroke-width="0.3059" stroke-miterlimit="10" points="911.019,174.626 
					903.127,174.626 901.858,159.873 912.384,159.873 				"/>
				<polygon fill="#DD4430" points="911.019,192.57 904.112,192.57 903.127,174.626 911.019,174.246 				"/>
				<path fill="#020202" d="M911.019,192.016h-6.907c-0.716,0-10.517,2.738-10.517,3.33v2.232c0,0.592,0.582,1.07,1.298,1.07h1.985
					v1.148h1.821v-1.148h2.246v1.148h1.822v-1.148h2.165v1.148h1.823v-1.148h2.769v1.148h1.82v-1.168
					c0.594-0.1,1.039-0.533,1.039-1.051v-2.232C912.384,194.754,912.318,193.088,911.019,192.016z"/>
				<polygon fill="#F4CACA" stroke="#DBB5B4" stroke-width="0.3059" stroke-miterlimit="10" points="917.992,174.626 
					925.884,174.626 927.154,159.873 916.628,159.873 				"/>
				<polygon fill="#DD4430" points="917.992,192.57 924.898,192.57 925.884,174.626 917.992,174.246 				"/>
				<path fill="#020202" d="M917.992,192.016h6.906c0.717,0,10.518,2.738,10.518,3.33v2.232c0,0.592-0.582,1.07-1.296,1.07h-1.986
					v1.148h-1.822v-1.148h-2.247v1.148h-1.821v-1.148h-2.164v1.148h-1.821v-1.148h-2.77v1.148h-1.821v-1.168
					c-0.594-0.1-1.038-0.533-1.038-1.051v-2.232C916.628,194.754,916.694,193.088,917.992,192.016z"/>
				<g>
					<path fill="#F4CACA" stroke="#DBB5B4" stroke-width="0.3059" stroke-miterlimit="10" d="M904.112,127.94l0.3-6.991l0.298-6.99
						h-1.929h-1.93h-1.93h-1.932l-0.059,2.175l1.243,11.239l0.592,6.707l0.591,6.707c-0.715,0-1.296,0.581-1.296,1.298v6.975
						c0,0.716,0.581,1.297,1.296,1.297h4.057c0.716,0,1.296-0.581,1.296-1.297v-6.975c0-0.666-0.502-1.209-1.148-1.283l0.252-5.87
						L904.112,127.94z"/>
					<path fill="#F4CACA" stroke="#DBB5B4" stroke-width="0.3059" stroke-miterlimit="10" d="M930.829,141.436h-0.648l0.592-6.707
						l0.592-6.707l1.245-11.239l-0.062-2.175h-1.932h-1.929h-1.93h-1.93l0.301,6.991l0.299,6.991l0.299,6.99l0.262,6.127
						c-0.31,0.237-0.512,0.606-0.512,1.027v6.974c0,0.717,0.581,1.298,1.299,1.298h4.054c0.716,0,1.299-0.581,1.299-1.298v-6.974
						C932.127,142.017,931.544,141.436,930.829,141.436z"/>
				</g>
				<path fill="#F9DF3E" stroke="#005183" stroke-width="0.3059" stroke-miterlimit="10" d="M932.958,110.019
					c0-3.199-2.715-5.792-6.062-5.792h-24.255c-3.349,0-6.062,2.593-6.062,5.792v5.79h6.25l-1.031,24.178h25.943l-1.029-24.178
					h6.248L932.958,110.019L932.958,110.019z"/>
				<g>
					<path fill="#F4CACA" stroke="#DBB5B4" stroke-width="0.3059" stroke-miterlimit="10" d="M914.77,102.28
						c5.375,0,9.73-5.228,9.73-11.678s-4.355-11.678-9.73-11.678c-5.376,0-9.731,5.228-9.731,11.678S909.394,102.28,914.77,102.28z"
						/>
					<polygon fill="#020202" points="922.779,80.18 918.086,77.455 914.77,77.455 911.452,77.455 906.759,80.18 905.115,82.779 
						905.115,85.441 905.155,89.134 909.306,84.072 914.77,87.154 920.234,84.072 924.383,89.134 924.423,85.441 924.423,82.779 
											"/>
				</g>
				<polygon fill="#005183" points="929.371,159.873 927.606,139.986 916.22,139.986 913.319,139.986 901.932,139.986 
					900.168,159.873 913.523,159.873 914.77,150.684 916.016,159.873 				"/>
			</g>
			<text transform="matrix(1 0 0 1 879.4087 253.7598)" fill="#F9DF3C" font-family="'MyriadPro-Regular'" font-size="14.1207">Player JSON</text>
		</g>
	</g>
	<g>
		<text transform="matrix(1 0 0 1 281.667 39.4751)" fill="#F9DF3C" font-family="'MyriadPro-Bold'" font-size="14.1207">data input</text>
		<line fill="none" stroke="#F8DF3C" stroke-width="2" stroke-miterlimit="10" x1="64.819" y1="35.331" x2="260.879" y2="35.331"/>
		<line fill="none" stroke="#F8DF3C" stroke-width="2" stroke-miterlimit="10" x1="367.819" y1="35.331" x2="563.879" y2="35.331"/>
		<text transform="matrix(1 0 0 1 683.8599 39.4751)" fill="#F9DF3C" font-family="'MyriadPro-Bold'" font-size="14.1207">process</text>
		<text transform="matrix(1 0 0 1 889.3091 39.4751)" fill="#F9DF3C" font-family="'MyriadPro-Bold'" font-size="14.1207">output</text>
	</g>
</g>
<g>
	<g>
		<line fill="none" stroke="#F8DF3C" stroke-width="2" stroke-miterlimit="10" x1="801.879" y1="140.12" x2="831.978" y2="140.12"/>
		<g>
			<polygon fill="#F8DF3C" points="846.099,140.12 826.201,148.25 830.922,140.12 826.201,131.991 			"/>
		</g>
	</g>
</g>
</svg>
