<?xml version="1.0" encoding="UTF-8" standalone="no"?>
<!-- Created with Inkscape (http://www.inkscape.org/) -->

<svg xmlns:dc="http://purl.org/dc/elements/1.1/" xmlns:cc="http://creativecommons.org/ns#" xmlns:rdf="http://www.w3.org/1999/02/22-rdf-syntax-ns#" xmlns:svg="http://www.w3.org/2000/svg" xmlns="http://www.w3.org/2000/svg" xmlns:sodipodi="http://sodipodi.sourceforge.net/DTD/sodipodi-0.dtd" xmlns:inkscape="http://www.inkscape.org/namespaces/inkscape" id="svg2985" version="1.1" inkscape:version="0.48.5 r10040" width="508.50253" height="394.14584" sodipodi:docname="The-Weather-Company-logo.svg">
  <metadata id="metadata2991">
    <rdf:RDF>
      <cc:Work rdf:about="">
        <dc:format>image/svg+xml</dc:format>
        <dc:type rdf:resource="http://purl.org/dc/dcmitype/StillImage" />
        <dc:title></dc:title>
      </cc:Work>
    </rdf:RDF>
  </metadata>
  <defs id="defs2989"><clipPath id="clipPath3701">
  <path inkscape:connector-curvature="0" id="path3703" d="m 0.5697,0.0455 0.43,0 0,0.3541 -0.43,0 0,-0.3541 z" />
</clipPath>
<clipPath id="clipPath3689">
  <path inkscape:connector-curvature="0" id="path3691" d="m 4e-4,0.0455 0.43,0 0,0.3541 -0.43,0 0,-0.3541 z" />
</clipPath>
<clipPath id="clipPath3681">
  <path inkscape:connector-curvature="0" id="path3683" d="M 0,0 1,0 1,1 0,1 0,0 z" />
</clipPath>
<clipPath id="clipPath3673">
  <path inkscape:connector-curvature="0" id="path3675" d="m -0.18812,-0.80017 2.3455,0 0,2.06795 -2.3455,0 0,-2.06795 z" />
</clipPath>
<clipPath id="clipPath3663">
  <path inkscape:connector-curvature="0" id="path3665" d="M 0,0 792,0 792,612 0,612 0,0 z" />
</clipPath>
<clipPath id="clipPath3655">
  <path inkscape:connector-curvature="0" id="path3657" d="m 36,114.857 396,0 0,428.7061 -396,0 0,-428.7061 z" />
</clipPath>
<clipPath id="clipPath3523">
  <path inkscape:connector-curvature="0" id="path3525" d="m -0.3148,-0.9542 1.5554,0 0,1.9542 -1.5554,0 0,-1.9542 z" />
</clipPath>
<clipPath id="clipPath3515">
  <path inkscape:connector-curvature="0" id="path3517" d="m -0.6,-0.53105 13.9753,0 0,13.00385 -13.9753,0 0,-13.00385 z" />
</clipPath>
<clipPath id="clipPath3505">
  <path inkscape:connector-curvature="0" id="path3507" d="M 0,0 792,0 792,612 0,612 0,0 z" />
</clipPath>
<clipPath id="clipPath3497">
  <path inkscape:connector-curvature="0" id="path3499" d="m 34,25 56.663,0 0,50.087 L 34,75.087 34,25 z" />
</clipPath>

<clipPath id="clipPath3701-7">
  <path inkscape:connector-curvature="0" id="path3703-6" d="m 0.5697,0.0455 0.43,0 0,0.3541 -0.43,0 0,-0.3541 z" />
</clipPath>
<clipPath id="clipPath3689-5">
  <path inkscape:connector-curvature="0" id="path3691-2" d="m 4e-4,0.0455 0.43,0 0,0.3541 -0.43,0 0,-0.3541 z" />
</clipPath>
<clipPath id="clipPath3681-1">
  <path inkscape:connector-curvature="0" id="path3683-1" d="M 0,0 1,0 1,1 0,1 0,0 z" />
</clipPath>
<clipPath id="clipPath3673-1">
  <path inkscape:connector-curvature="0" id="path3675-7" d="m -0.18812,-0.80017 2.3455,0 0,2.06795 -2.3455,0 0,-2.06795 z" />
</clipPath>
<clipPath id="clipPath3663-5">
  <path inkscape:connector-curvature="0" id="path3665-5" d="M 0,0 792,0 792,612 0,612 0,0 z" />
</clipPath>
<clipPath id="clipPath3655-2">
  <path inkscape:connector-curvature="0" id="path3657-4" d="m 36,114.857 396,0 0,428.7061 -396,0 0,-428.7061 z" />
</clipPath>
<clipPath id="clipPath3523-8">
  <path inkscape:connector-curvature="0" id="path3525-8" d="m -0.3148,-0.9542 1.5554,0 0,1.9542 -1.5554,0 0,-1.9542 z" />
</clipPath>
<clipPath id="clipPath3515-9">
  <path inkscape:connector-curvature="0" id="path3517-4" d="m -0.6,-0.53105 13.9753,0 0,13.00385 -13.9753,0 0,-13.00385 z" />
</clipPath>
<clipPath id="clipPath3505-4">
  <path inkscape:connector-curvature="0" id="path3507-0" d="M 0,0 792,0 792,612 0,612 0,0 z" />
</clipPath>
<clipPath id="clipPath3497-1">
  <path inkscape:connector-curvature="0" id="path3499-7" d="m 34,25 56.663,0 0,50.087 L 34,75.087 34,25 z" />
</clipPath>

</defs>
  <sodipodi:namedview pagecolor="#ffffff" bordercolor="#666666" borderopacity="1" objecttolerance="10" gridtolerance="10" guidetolerance="10" inkscape:pageopacity="0" inkscape:pageshadow="2" inkscape:window-width="1366" inkscape:window-height="706" id="namedview2987" showgrid="false" showguides="true" inkscape:guide-bbox="true" inkscape:zoom="0.75441736" inkscape:cx="442.14872" inkscape:cy="195.03022" inkscape:window-x="-8" inkscape:window-y="-8" inkscape:window-maximized="1" inkscape:current-layer="svg2985" fit-margin-top="0" fit-margin-left="0" fit-margin-right="0" fit-margin-bottom="0" />
  <g id="g3373" transform="translate(-1.8808558,-4.0305724)">
    <path sodipodi:nodetypes="ccsssssssssssssccc" inkscape:connector-curvature="0" id="path2995" d="m 345.29903,4.0305724 -6.58282,13.4648666 c 0,0 -3.64208,10.859967 -4.78751,16.45706 -0.66473,3.248183 -0.98867,6.565276 -1.19688,9.874235 -0.13865,2.203474 -0.75598,6.147113 -0.89766,9.275798 -0.42818,9.455226 0.97478,21.645902 0.29922,32.914119 -0.31182,5.201048 -0.25201,10.499715 -1.49609,15.559399 -1.51687,6.16914 -3.70057,12.33945 -7.18127,17.65394 -3.20744,4.89727 -7.31115,9.45262 -12.26799,12.56721 -9.53411,5.99068 -20.75858,10.98998 -32.01646,10.77189 -12.90877,-0.25007 -25.97524,-5.88752 -36.20553,-13.76408 -5.83376,-4.49156 -9.93429,-11.19969 -12.86643,-17.95316 -3.24065,-7.46406 -5.2442,-15.813169 -4.7875,-23.937542 0.58774,-10.455692 2.98914,-21.699615 9.57501,-29.921926 8.61919,-10.760866 22.29241,-19.318603 35.30787,-21.543787 21.54248,-3.683003 40.69382,-9.275797 40.69382,-9.275797 l 20.64613,-12.26799 z" style="fill:#00a5dc;fill-opacity:1;stroke:none" />
    <path inkscape:connector-curvature="0" style="fill:#2b3d8d;fill-opacity:1;fill-rule:evenodd;stroke:none" id="path3753" d="m 71.77598,285.74023 c -5.481974,-4.25413 -14.732814,-7.09014 -24.326291,-7.09014 -15.075342,0 -28.780291,7.65738 -36.318071,20.70331 -4.4540782,7.65736 -6.5098534,16.73277 -6.5098534,27.79344 0,13.32952 4.111488,24.10655 11.6491904,32.33116 7.880416,8.50821 17.816453,12.47869 30.836159,12.47869 10.963901,0 19.186892,-2.83611 26.724594,-8.50826 l -8.908265,-11.34425 c -5.481865,4.25411 -10.621217,5.67213 -16.445905,5.67213 -7.880277,0 -14.39013,-3.40326 -18.15895,-9.92613 -2.741065,-4.82136 -4.111488,-11.9115 -4.111488,-24.10665 0,-10.49342 1.713107,-17.86719 5.481895,-23.25579 3.426277,-4.53768 9.593478,-7.65734 16.103331,-7.65734 5.482005,0 10.278689,1.70167 15.075373,5.10488" />
    <path inkscape:connector-curvature="0" style="fill:#2b3d8d;fill-opacity:1;fill-rule:evenodd;stroke:none" id="path3757" d="m 350.89433,338.56025 -0.32327,14.36191 c -2.58633,2.87232 -5.81925,4.59578 -9.05221,4.59578 -4.20273,0 -7.43565,-3.44679 -7.43565,-8.61717 0,-8.04259 4.20284,-10.34052 16.16462,-10.34052 l 0.64655,0 z m -33.94564,-29.58541 7.43569,12.35115 c 7.11246,-4.59576 13.57822,-7.46822 19.07415,-7.46822 6.14261,0 7.75912,2.58528 7.75912,10.05336 l 0,2.58513 c -1.61651,0 -2.5864,0 -3.8796,0 -21.01391,0 -31.68252,7.18101 -31.68252,22.979 0,13.21292 7.759,20.96833 22.63045,20.96833 5.49587,0 10.02206,-1.43618 13.2549,-3.73409 1.29318,-0.86169 2.58641,-2.29786 3.87951,-3.4468 1.93971,3.4468 5.49602,6.31922 9.37551,8.04267 l 9.37541,-10.62783 c -5.17271,-4.02128 -6.4658,-6.60639 -6.4658,-13.78742 0,-0.57446 0,-0.86165 0,-1.14897 l 0.64654,-22.69171 c 0,-7.1809 -0.32328,-9.19167 -1.29319,-12.06398 -2.58627,-7.46822 -10.022,-11.48945 -21.33721,-11.48945 -6.14256,0 -11.63851,1.14892 -18.10435,4.02123 -4.52616,1.72345 -7.11242,3.15963 -10.66861,5.4576" />
    <path sodipodi:nodetypes="ccscccsccccccssccscsccsccc" inkscape:connector-curvature="0" id="path3759" d="m 159.3125,300.84375 -16.09375,4.25 c 1.37043,4.53771 2.40625,9.9216 2.40625,15.59375 l 0,47.9375 18.15625,0 0,-46.78125 c 4.63037,-4.39239 9.23116,-5.96875 13,-5.96875 3.61897,0 5.22099,1.51443 5.6875,6.03125 l 0,46.71875 0.15625,0 17.8125,0 0.34375,0 0,-47.09375 c 1.81719,-3.67496 4.77845,-5.65625 8.4375,-5.65625 4.45412,0 5.84375,2.28246 5.84375,9.65625 l 0,43.09375 16.75,0 0,-48.21875 c 0,-4.25408 -0.34704,-7.07254 -1.375,-9.625 -2.05569,-5.67215 -3.08844,-9.375 -10.96875,-9.375 -4.11144,0 -12.97009,-0.72888 -16.5625,2.84375 -1.88255,0.97389 -3.62499,2.10042 -5.40625,3.25 -3.08381,-3.76454 -8.64812,-6.09375 -14.875,-6.09375 -4.11144,0 -8.91872,0.85849 -12.6875,2.84375 -2.74107,1.41802 -5.13392,3.11083 -7.875,4.8125 0,-2.55246 -1.03694,-5.38274 -2.75,-8.21875 z" style="fill:#2b3d8d;fill-opacity:1;fill-rule:evenodd;stroke:none" />
    <path inkscape:connector-curvature="0" style="fill:#2b3d8d;fill-opacity:1;fill-rule:evenodd;stroke:none" id="path3767" d="m 2.4161245,168.03005 21.6854645,90.01024 21.028321,0 7.557033,-36.56672 c 2.628604,-13.22024 4.27139,-25.59662 4.27139,-25.59662 0.328551,2.25027 1.642786,13.78277 4.271404,25.87796 l 8.214107,36.28538 20.042665,0 22.014081,-90.01024 -19.385476,0 -7.228484,33.75385 c -1.971442,8.71973 -4.928536,27.00305 -4.928536,29.81581 0,0 -2.300023,-15.47046 -4.271389,-23.62761 l -8.214242,-39.94205 -20.042562,0 -8.214182,36.00402 c -2.628603,12.37648 -4.271418,25.03407 -4.600015,28.40951 0,0 -1.314189,-12.65767 -4.92849,-29.25333 l -7.885661,-35.1602" />
    <path inkscape:connector-curvature="0" style="fill:#2b3d8d;fill-opacity:1;fill-rule:evenodd;stroke:none" id="path3769" d="m 132.75317,217.25428 0,-0.28126 c 0,-9.28231 4.03104,-14.34538 10.74941,-14.34538 3.6951,0 6.04652,1.40637 7.72613,3.93793 1.67966,2.53152 2.35147,5.06304 2.35147,9.8449 l 0,0.84379 -20.82701,0 z m 31.57648,22.22132 c -5.37476,4.50049 -11.08534,6.75083 -17.46784,6.75083 -9.06986,0 -14.44462,-5.90698 -14.44462,-16.03312 l 0,-0.56254 39.6386,0 c 0,-1.12518 0,-2.53157 0,-3.93793 0,-13.78285 -2.68731,-22.50259 -9.06982,-28.69079 -4.36701,-4.21925 -11.75726,-7.03201 -19.81938,-7.03201 -9.06981,0 -15.78818,3.09408 -21.49881,9.00099 -6.04663,6.46953 -8.73398,14.34535 -8.73398,25.87798 0,20.8148 12.76506,34.03508 32.58428,34.03508 9.74179,0 17.80383,-2.81279 25.8659,-9.00099" />
    <path inkscape:connector-curvature="0" style="fill:#2b3d8d;fill-opacity:1;fill-rule:evenodd;stroke:none" id="path3771" d="m 215.03491,228.50559 -0.33588,14.06413 c -2.68731,2.81279 -6.04657,4.50052 -9.40582,4.50052 -4.36683,0 -7.7261,-3.37535 -7.7261,-8.71975 0,-7.59463 4.36701,-9.8449 16.79596,-9.8449 l 0.67191,0 z m -35.27169,-29.25326 7.72625,12.37633 c 7.39026,-4.7817 14.10865,-7.31324 19.81924,-7.31324 6.3825,0 8.06207,2.25018 8.06207,9.56356 l 0,2.81286 c -1.67957,-0.28126 -2.68732,-0.28126 -4.03106,-0.28126 -21.83475,0 -32.9201,7.31334 -32.9201,22.78386 0,12.9389 8.06208,20.25227 23.51444,20.25227 5.71062,0 10.41343,-1.12517 13.77266,-3.37538 1.34375,-0.84387 2.68737,-2.25027 4.03105,-3.65664 2.01551,3.37532 5.71069,6.46947 9.74173,8.15713 l 9.74167,-10.68869 c -5.37476,-3.65664 -6.71841,-6.18821 -6.71841,-13.50155 0,-0.28126 0,-0.56258 0,-1.12513 l 0.33591,-21.94002 c 0.3359,-7.03202 0,-9.00097 -1.00779,-11.81383 -2.68729,-7.31325 -10.74941,-11.53253 -22.17068,-11.53253 -6.38249,0 -12.09313,1.40639 -18.81145,3.93793 -4.70296,1.96898 -7.39031,3.37537 -11.08548,5.34439" />
    <path inkscape:connector-curvature="0" style="fill:#2b3d8d;fill-opacity:1;fill-rule:evenodd;stroke:none" id="path3773" d="m 281.93521,191.65766 -16.12415,0 c 0,-6.7507 0.33591,-14.06404 1.00777,-19.97092 l -18.13967,4.21916 c -0.67181,5.06304 -0.67181,9.28229 -0.67181,15.75176 l -7.05433,0 0,11.53259 7.05433,0 0,35.7228 c 0,6.18821 0,7.31338 1.00775,10.12614 2.35138,5.90697 9.40582,9.56365 18.47561,9.56365 4.70286,0 9.40573,-0.84392 14.78044,-2.81289 l -2.35149,-10.40744 c -3.35909,0.84392 -4.7028,1.40647 -6.3824,1.40647 -6.38249,0 -7.7262,-2.25027 -7.7262,-10.68869 l 0,-32.91004 11.42131,0" />
    <path inkscape:connector-curvature="0" style="fill:#2b3d8d;fill-opacity:1;fill-rule:evenodd;stroke:none" id="path3775" d="m 284.77938,166.34233 c 0.67184,2.53152 1.34372,8.71972 1.34372,14.90794 l 0,75.9461 18.13965,0 0,-46.9741 c 4.03107,-3.65667 9.74165,-6.1882 14.10867,-6.1882 5.03878,0 7.0543,2.53153 7.0543,9.00109 l 0,44.16121 17.46784,0 0,-45.84893 c 0,-6.46946 -0.33589,-8.43841 -1.67965,-12.37641 -2.01549,-5.62565 -9.06981,-9.28236 -17.80371,-9.28236 -7.05434,0 -14.78051,2.81289 -19.4834,7.03215 0,-0.56258 0.33591,-3.37544 0.33591,-5.34443 l 0,-13.2202 c 0,-6.18821 -0.33591,-12.37643 -1.34371,-16.03312" />
    <path inkscape:connector-curvature="0" style="fill:#2b3d8d;fill-opacity:1;fill-rule:evenodd;stroke:none" id="path3777" d="m 371.78265,217.25428 0,-0.28126 c 0,-9.28231 4.03104,-14.34538 11.08539,-14.34538 3.3592,0 6.04662,1.40637 7.72617,3.93793 1.67963,2.53152 2.01555,5.06304 2.01555,9.8449 l 0,0.84379 -20.82711,0 z m 31.91246,22.22132 c -5.71058,4.50049 -11.42127,6.75083 -17.46787,6.75083 -9.40577,0 -14.44459,-5.90698 -14.44459,-16.03312 l 0,-0.56254 39.63857,0 c 0,-1.12518 0,-2.53157 0,-3.93793 0,-13.78285 -2.68729,-22.50259 -9.06986,-28.69079 -4.36683,-4.21925 -12.09309,-7.03201 -19.8192,-7.03201 -9.06986,0 -16.12416,3.09408 -21.83485,9.00099 -6.04657,6.46953 -8.39795,14.34535 -8.39795,25.87798 0,20.8148 12.76496,34.03508 32.24831,34.03508 9.74164,0 18.1397,-2.81279 25.86581,-9.00099" />
    <path inkscape:connector-curvature="0" style="fill:#2b3d8d;fill-opacity:1;fill-rule:evenodd;stroke:none" id="path3779" d="m 421.16298,194.18928 c 1.67954,3.65658 2.68733,10.40741 2.68733,19.1271 l 0,43.87999 17.80381,0 0,-46.41148 c 3.3591,-3.65671 7.0543,-5.62565 11.08535,-5.62565 2.01554,0 3.69511,0.56255 5.37475,1.40636 l 4.70286,-15.18921 c -2.68731,-1.1251 -3.69511,-1.40635 -6.3825,-1.40635 -2.01556,0 -4.70286,0.28125 -6.04657,1.12517 -3.35925,1.40635 -7.72614,5.06303 -10.0776,8.15712 -0.33591,-3.65664 -1.34372,-6.46953 -3.02329,-9.28229" />
    <path inkscape:connector-curvature="0" style="fill:#2b3d8d;fill-opacity:1;fill-rule:evenodd;stroke:none" id="path3781" d="m 1.8808558,56.1142 0,14.905795 23.2983952,0 0,74.247745 19.529498,0 0,-74.247745 22.613106,0 3.083592,-14.905795" />
    <path inkscape:connector-curvature="0" style="fill:#2b3d8d;fill-opacity:1;fill-rule:evenodd;stroke:none" id="path3783" d="m 71.305323,54.426722 c 0.685212,2.531158 1.370532,8.718514 1.370532,14.905781 l 0,75.935237 18.501634,0 0,-47.248585 c 4.111442,-3.374853 9.936021,-5.906025 14.390131,-5.906025 5.482,0 7.19509,2.531172 7.19509,8.99969 l 0,44.15492 17.81644,0 0,-46.123604 c 0,-6.187326 -0.3426,-8.437272 -1.71311,-12.093352 -2.05572,-5.624799 -9.25079,-9.280981 -18.15905,-9.280981 -7.19507,0 -15.075349,2.812385 -19.872169,7.031006 0,-0.843665 0.342606,-3.374824 0.342606,-5.624813 l 0,-12.93712 c 0,-6.187325 -0.342606,-12.374636 -1.370564,-16.030746" />
    <path inkscape:connector-curvature="0" style="fill:#2b3d8d;fill-opacity:1;fill-rule:evenodd;stroke:none" id="path3785" d="m 160.27817,104.23645 0,-0.28121 c 0,-8.999675 3.69256,-14.062108 10.74199,-14.062108 3.35694,0 6.04239,1.124937 7.72092,3.937424 1.67839,2.249887 2.01412,4.781045 2.01412,9.843454 l 0,0.56241 -20.47703,0 z m 31.55474,22.49934 c -5.70675,4.49994 -11.41344,6.46862 -17.45581,6.46862 -9.3993,0 -14.43463,-5.62483 -14.43463,-15.74948 l 0,-0.5625 39.6112,0 c 0,-1.12498 0,-2.53117 0,-3.93746 0,-13.780828 -2.68546,-22.499311 -9.06355,-28.686622 -4.36396,-4.499834 -12.08479,-7.030992 -19.80566,-7.030992 -9.06361,0 -16.11304,2.812415 -21.81968,8.999799 -5.70676,6.468464 -8.39226,14.061995 -8.39226,25.874155 0,20.81182 12.75622,34.03014 32.56177,34.03014 9.39931,0 17.79155,-3.09359 25.84805,-8.99967" />
    <path id="rect3256" d="m 105.5625,302 c -16.268958,0 -29.375,13.43857 -29.375,30.125 l 0,8.71875 c 0,16.68643 13.106042,30.125 29.375,30.125 16.26896,0 29.375,-13.43857 29.375,-30.125 l 0,-8.71875 c 0,-16.68643 -13.10604,-30.125 -29.375,-30.125 z m -0.46875,12.875 1.65625,0 c 5.64503,0 10.1875,8.32107 10.1875,18.65625 l 0,6.59375 c 0,10.33518 -4.54247,18.65625 -10.1875,18.65625 l -1.65625,0 c -5.645024,0 -10.21875,-8.32107 -10.21875,-18.65625 l 0,-6.59375 c 0,-10.33518 4.573726,-18.65625 10.21875,-18.65625 z" style="fill:#2b3d8d;fill-opacity:1;fill-rule:evenodd;stroke:none" inkscape:connector-curvature="0" />
    <path inkscape:connector-curvature="0" style="fill:#2b3d8d;fill-opacity:1;fill-rule:evenodd;stroke:none" id="path3759-2" d="m 382.84418,303.94211 c 1.28368,4.5005 2.24647,9.84488 2.24647,15.47052 l 0,47.53647 17.00967,0 0,-46.41135 c 4.17207,-3.65665 8.66524,-5.90692 12.19551,-5.90692 4.17219,0 5.45597,2.25027 5.45597,9.56361 l 0,42.75466 17.00956,0 0,-47.81774 c 0,-4.21921 -0.32091,-7.03209 -1.2838,-9.56362 -1.92559,-5.62563 -8.34426,-9.28226 -15.72576,-9.28226 -3.85119,0 -8.34439,0.84387 -11.87464,2.81285 -2.56755,1.4064 -4.81405,3.09411 -7.38159,4.78182 0,-2.53152 -0.9628,-5.34441 -2.56743,-8.15715" />
    <path sodipodi:nodetypes="cccccccccccc" inkscape:connector-curvature="0" id="path3364" d="m 458.64415,396.9162 -6.84078,-11.87765 c 8.42126,-3.08897 15.62457,-6.62693 19.34358,-17.92067 l -4.58436,0.20838 -22.92179,-64.80615 18.75419,-2.50056 15.06438,52.00866 14.31719,-50.96676 18.60684,0 c -8.19363,22.57748 -15.65051,44.73932 -23.84414,67.73245 -1.53822,5.69785 -5.90381,16.09414 -10.31428,19.15509 -4.86218,5.48431 -11.1763,7.33879 -17.58083,8.96721 z" style="fill:#2b3d8d;fill-opacity:1;stroke:none" />
    <path id="path3366" d="m 278.96875,300.71875 c -5.80673,0.15633 -10.23097,2.7274 -14.125,6.1875 0.62359,-2.04881 0.27751,-3.95554 -2.5,-5.4375 l -14.59375,2.9375 c 1.39022,4.9337 2.12742,8.53908 1.25,8.9375 0,0 0.36202,86.34504 0.4375,84.8125 0.0513,-1.04064 16.53125,-5.78125 16.53125,-5.78125 l 0,-26.09375 c 12.40317,6.31256 19.06538,2.70709 26.375,0 6.04385,-3.48624 10.89579,-10.29416 13.53125,-23.4375 l 0,-17.40625 c -2.14049,-9.07588 -5.33,-17.5168 -14.78125,-22.09375 -4.66703,-1.94955 -8.64096,-2.7188 -12.125,-2.625 z m -1.625,14.15625 c 4.94977,0.16885 6.95227,2.80341 8.53125,5.78125 2.25761,8.42551 2.41171,20.35457 -0.65625,30.53125 -4.57114,4.77875 -10.45432,6.34246 -19,1.46875 l 0,-32.875 c 2.84804,-2.48938 6.02827,-4.66556 11.125,-4.90625 z" style="fill:#2b3d8d;fill-opacity:1;stroke:none" inkscape:connector-curvature="0" />
  </g>
</svg>
